<svg xmlns="http://www.w3.org/2000/svg" viewBox="0 0 169.027 53.088"><g transform="translate(-0.05 -0.05)"><g transform="translate(0.05 0.05)"><g transform="translate(0 0)"><path d="M290.9,101.065l-8.326-11.4v11.4H277.5V81.352h5.222L290.693,92.2V81.352H295.8v19.713Zm17.975.355c-6.023,0-10.538-4.2-10.538-10.2s4.515-10.2,10.538-10.2,10.507,4.2,10.507,10.2-4.487,10.2-10.507,10.2m0-15.9c-3.277,0-5.372,2.482-5.372,5.7s2.1,5.7,5.372,5.7,5.341-2.513,5.341-5.7-2.1-5.7-5.341-5.7m25.855,8.3,4.015,7.253H332.93l-3.305-6.619h-2.59v6.606h-5.077V81.352h9.859c4.37,0,6.849,2.9,6.849,6.562a5.973,5.973,0,0,1-3.927,5.911m-3.689-8.03h-4.015v4.228h4.015a2.137,2.137,0,1,0,0-4.228m18.713,15.283h-8.289V81.352h8.266c6.2,0,10.654,3.725,10.654,9.844s-4.458,9.872-10.621,9.872m0-15.283h-3.238V96.632h3.189a5.232,5.232,0,0,0,5.461-5.44,5.049,5.049,0,0,0-5.44-5.409m13.175-4.432H368v19.713h-5.077Zm18.27,4.168a5.7,5.7,0,0,0,0,11.4,4.725,4.725,0,0,0,4.22-2.868l4.37,2.072a9.143,9.143,0,0,1-8.59,5.29c-6.051,0-10.654-4.145-10.654-10.2s4.6-10.2,10.654-10.2a9.086,9.086,0,0,1,8.59,5.29l-4.37,2.072a4.725,4.725,0,0,0-4.22-2.868" transform="translate(-221.063 -71.503)" fill="#ffffff"></path><path d="M280.81,170.977c-.9,0-1.4.4-1.4.992,0,1.572,5.668.518,5.668,4.209,0,1.813-1.3,3.171-3.953,3.171a5.62,5.62,0,0,1-4.171-1.57l1.14-1.6a4.321,4.321,0,0,0,3.134,1.334c1.155,0,1.717-.534,1.717-1.1,0-1.749-5.681-.547-5.681-4.266,0-1.645,1.42-3.007,3.743-3.007a5.508,5.508,0,0,1,3.847,1.378l-1.168,1.554a4.243,4.243,0,0,0-2.873-1.083m14.118,8.193-.609-1.686h-4.23l-.622,1.673h-2.4l3.818-9.882h2.632l3.8,9.882Zm-2.723-7.771-1.539,4.233h3.077Zm7.813,7.771v-9.9h2.1v8.03h4.173v1.852Zm16.5-1.852v1.852h-6.994v-9.9h6.994v1.852h-4.883v2.1h4.779v1.852h-4.779v2.236Zm6.613-6.341c-.9,0-1.4.4-1.4.992,0,1.572,5.668.518,5.668,4.209,0,1.813-1.3,3.171-3.953,3.171a5.62,5.62,0,0,1-4.171-1.57l1.137-1.6a4.334,4.334,0,0,0,3.137,1.334c1.155,0,1.717-.534,1.717-1.1,0-1.749-5.681-.547-5.681-4.266,0-1.645,1.42-3.007,3.743-3.007a5.508,5.508,0,0,1,3.847,1.378L326,172.085A4.243,4.243,0,0,0,323.129,171m15.123.163v2.07h4.779v1.852h-4.779v4.088h-2.1v-9.888h6.994v1.852Zm12.8,8.183a5.113,5.113,0,1,1,5.181-5.111,4.958,4.958,0,0,1-5.181,5.111m0-8.357a3.254,3.254,0,1,0,3,3.246,2.992,2.992,0,0,0-3-3.246m14.19,4.4,2.217,3.764h-2.412l-1.938-3.51h-1.539v3.51h-2.1v-9.872h4.616a3.077,3.077,0,0,1,3.316,3.186,2.834,2.834,0,0,1-2.16,2.932m-1.466-4.266h-2.2v2.668h2.2a1.341,1.341,0,1,0,0-2.668m11.763-.148a3.248,3.248,0,0,0,0,6.489,2.645,2.645,0,0,0,2.331-1.438l1.813.876a4.543,4.543,0,0,1-4.129,2.43,5.114,5.114,0,1,1,0-10.224,4.515,4.515,0,0,1,4.129,2.417l-1.813.889a2.676,2.676,0,0,0-2.331-1.438m14.146,6.326v1.852h-6.994v-9.882h6.994v1.852H384.8v2.1h4.779v1.852H384.8v2.236Z" transform="translate(-220.655 -136.783)" fill="#ffffff"></path><path d="M166.6,97.283l-5.655-16.4v19.674l-7.828,4.531V64.009l-2.1,1.658,2.1-2.021v-.088c2.891-2.79,5.352-5.126,7.108-6.779h.023l2.59-2.487-1.106-1.173L166.609,52,165.2,56.823l-1.264-1.339-2.526,1.992,1,.567,7.4,21.267V62.325l5.911,3.419V92.006Z" transform="translate(-127.346 -52)" fill="#ffffff" fill-rule="evenodd"></path><path d="M159.12,54.57l6.245,3.614c-1.66,1.352-3.823,3.124-6.245,5.129Z" transform="translate(-133.348 -53.904)" fill="#ffffff" fill-rule="evenodd"></path><path d="M83.122,68.672l-.777.64c-1.521,1.272-3.1,2.59-4.663,3.94v-.026c-.715.609-1.474,1.256-2.261,1.935v.026c-1.886,1.622-3.741,3.241-5.476,4.787h0C65.236,84.207,60.8,88.507,59.63,90.639a21.608,21.608,0,0,1,3.013-4.6V71.1l5.025-2.917V80.606c.7-.674,1.448-1.381,2.264-2.119V66.877l5.476-3.168v9.945l2.261-2V62.4l5.476-3.168v9.411l-.026.023Z" transform="translate(-59.63 -57.357)" fill="#ffffff" fill-rule="evenodd"></path><path d="M129.27,110.423v29.585l5.476,3.171V105.05c-1.728,1.681-3.57,3.487-5.476,5.373" transform="translate(-111.23 -91.308)" fill="#ffffff" fill-rule="evenodd"></path><path d="M73.3,177.036l-.259-.075,3.43,1.987V165.4c-8.888,10.248-3.16,11.636-3.16,11.636" transform="translate(-68.417 -136.025)" fill="#ffffff" fill-rule="evenodd"></path><path d="M99.4,140.033v17.32l5.476,3.173V134.49c-1.673,1.673-3.38,3.4-5.09,5.142l-.386.4" transform="translate(-89.098 -113.122)" fill="#ffffff" fill-rule="evenodd"></path></g></g></g></svg>
